<mxfile host="app.diagrams.net" modified="2024-08-02T20:22:35.985Z" agent="Mozilla/5.0 (Windows NT 10.0; Win64; x64) AppleWebKit/537.36 (KHTML, like Gecko) Chrome/123.0.0.0 Safari/537.36 OPR/109.0.0.0" version="24.3.1" etag="E_eOXzyc8qOSGKjArW-9" type="github">
  <diagram name="PÃ¡gina-1" id="I1N_2LX5mgsxKJud5I9W">
    <mxGraphModel>
      <root>
        <mxCell id="0" />
        <mxCell id="1" parent="0" />
      </root>
    </mxGraphModel>
  </diagram>
</mxfile>
